; NON-PLATED HOLES START AT T1
; THROUGH (PLATED) HOLES START AT T100
M48
INCH
T1C0.118110
T100C0.038000
T101C0.040278
T102C0.040000
%
T1
X015125Y014236
T100
X029444Y019555
X029444Y018555
T101
X017444Y002555
X012444Y002555
X021444Y002555
X023444Y021555
X015444Y002555
X021444Y021555
X007844Y021555
X013444Y002555
X018444Y021555
X010844Y021555
X016444Y002555
X012844Y021555
X022444Y021555
X013844Y021555
X024444Y002555
X018444Y002555
X016844Y021555
X024444Y021555
X009844Y021555
X011844Y021555
X008844Y021555
X025444Y021555
X025444Y002555
X020444Y021555
X015844Y021555
X019444Y021555
X011444Y002555
X023444Y002555
X014444Y002555
X014844Y021555
X020444Y002555
X022444Y002555
T102
X016444Y012917
X013255Y014236
X016995Y014236
X016444Y015555
X013806Y015555
X013806Y012917
T00
M30
