G04 MADE WITH FRITZING*
G04 WWW.FRITZING.ORG*
G04 DOUBLE SIDED*
G04 HOLES PLATED*
G04 CONTOUR ON CENTER OF CONTOUR VECTOR*
%ASAXBY*%
%FSLAX23Y23*%
%MOIN*%
%OFA0B0*%
%SFA1.0B1.0*%
%ADD10C,0.065278*%
%ADD11C,0.060000*%
%ADD12C,0.078000*%
%ADD13R,0.078000X0.078000*%
%LNCOPPER0*%
G90*
G70*
G54D10*
X2144Y256D03*
X2244Y256D03*
X2344Y256D03*
X2444Y256D03*
X2544Y256D03*
X1684Y2156D03*
X1584Y2156D03*
X1484Y2156D03*
X1384Y2156D03*
X1284Y2156D03*
X1184Y2156D03*
X1084Y2156D03*
X984Y2156D03*
X884Y2156D03*
X784Y2156D03*
X2544Y2156D03*
X2444Y2156D03*
X2344Y2156D03*
X2244Y2156D03*
X2144Y2156D03*
X2044Y2156D03*
X1944Y2156D03*
X1844Y2156D03*
X1244Y256D03*
X1144Y256D03*
X1344Y256D03*
X1444Y256D03*
X1544Y256D03*
X1644Y256D03*
X1744Y256D03*
X1844Y256D03*
X2044Y256D03*
G54D11*
X1326Y1424D03*
X1700Y1424D03*
X1381Y1556D03*
X1381Y1292D03*
X1644Y1292D03*
X1644Y1556D03*
G54D12*
X2944Y1956D03*
X2944Y1856D03*
G54D13*
X2944Y1956D03*
G04 End of Copper0*
M02*